<svg xmlns="http://www.w3.org/2000/svg" fill="white" viewBox="0 0 24 24"><path d="M7.75 2h8.5A5.75 5.75 0 0 1 22 7.75v8.5A5.75 5.75 0 0 1 16.25 22h-8.5A5.75 5.75 0 0 1 2 16.25v-8.5A5.75 5.75 0 0 1 7.75 2zm0 1.5A4.25 4.25 0 0 0 3.5 7.75v8.5A4.25 4.25 0 0 0 7.75 20.5h8.5a4.25 4.25 0 0 0 4.25-4.25v-8.5A4.25 4.25 0 0 0 16.25 3.5h-8.5zm8.75 3.25a.75.75 0 0 1 .102 1.493L16.5 8.25a.75.75 0 0 1-.102-1.493L16.5 6.75zm-4.5 1A4.75 4.75 0 1 1 7.75 12.5 4.75 4.75 0 0 1 12 7.75zm0 1.5a3.25 3.25 0 1 0 3.25 3.25A3.25 3.25 0 0 0 12 9.25z"></path></svg>
